                     =!DK GROUP HD BLURAY RELEAESEES!=

=====================================================================================



DOA: Dead or Alive (2006)720p BDRip In[Hindi-Eng-Tamil-Telgue]6ch.Ac3 By !!!dip


=====================================================================================

Storyline:

A number of fighters are invited to DOA, an invitational martial arts contest. They travel to the tournament island by plane, until they have to jump out mid-flight with parachutes, and then have until sundown to reach the main island to be entered into the tournament. Fighters are then pooled against one another in a knock-out style tournament, with the loser of a battle sent home, and the winner progressing to the subsequent round. The plot revolves around four female fighters who begin as rivals, but subsequently find themselves teaming up against another force. 


Cast:


Jaime Pressly	 ...	Tina Armstrong
Devon Aoki	 ...	Kasumi
Holly Valance	 ...	Christie Allen
Sarah Carter	 ...	Helena Douglas
Natassia Malthe	 ...	Ayane
Kane Kosugi	 ...	Ryu Hayabusa
Matthew Marsden	 ...	Max
Eric Roberts	 ...	Donovan
Steve Howey	 ...	Weatherby
Brian White	 ...	Zack
Kevin Nash	 ...	Bass Armstrong
Collin Chou	 ...	Hayate
Derek Boyer	 ...	Bayman
Silvio Simac	 ...	Leon
Fang Liu	 ...	Gen Fu


Genre............................: Action | Adventure
Directer.........................: Corey Yuen
Writer...........................: J.F. Lawton (screenplay), Adam Gross (screenplay)
IMDB.............................: http://www.imdb.com/title/tt0398913/
year.............................: 8 December 2006 (India)
Languages........................: (English,Hindi,Tamil,teluge) 6ch.ac3
Subtittle........................: English
Ripper...........................: !!!dip
Run Time :01H:26M:10S


Video Specifications:

Video
ID : 1
Format : AVC
Format/Info : Advanced Video Codec
Format profile : Main@L3.1
Format settings, CABAC : Yes
Format settings, ReFrames : 4 frames
Format settings, GOP : M=3, N=14
Muxing mode : Header stripping
Codec ID : V_MPEG4/ISO/AVC
Duration : 1h 26mn
Bit rate : 1 749 Kbps
Width : 1 280 pixels
Height : 544 pixels
Display aspect ratio : 2.35:1
Frame rate mode : Variable
Frame rate : 24.000 fps
Color space : YUV
Chroma subsampling : 4:2:0
Bit depth : 8 bits
Scan type : Progressive
Bits/(Pixel*Frame) : 0.105
Stream size : 1.05 GiB (65%)
Language : English
Team : DK Group HD Bluray Releases




Audio Specifications:

Audio #1
ID : 2
Format : AC-3
Format/Info : Audio Coding 3
Mode extension : CM (complete main)
Muxing mode : Header stripping
Codec ID : A_AC3
Duration : 1h 26mn
Bit rate mode : Constant
Bit rate : 448 Kbps
Channel(s) : 6 channels
Channel positions : Front: L C R, Side: L R, LFE
Sampling rate : 48.0 KHz
Bit depth : 16 bits
Compression mode : Lossy
Stream size : 276 MiB (17%)
Title : !!!dip 6CH.AC3
Language : English

Audio #2
ID : 3
Format : AC-3
Format/Info : Audio Coding 3
Mode extension : CM (complete main)
Muxing mode : Header stripping
Codec ID : A_AC3
Duration : 1h 26mn
Bit rate mode : Constant
Bit rate : 448 Kbps
Channel(s) : 6 channels
Channel positions : Front: L C R, Side: L R, LFE
Sampling rate : 48.0 KHz
Bit depth : 16 bits
Compression mode : Lossy
Delay relative to video : 24ms
Stream size : 276 MiB (17%)
Title : !!!dip 6CH.AC3
Language : Hindi




Audio #3
ID : 4
Format : AC-3
Format/Info : Audio Coding 3
Mode extension : CM (complete main)
Muxing mode : Header stripping
Codec ID : A_AC3
Duration : 1h 25mn
Bit rate mode : Constant
Bit rate : 448 Kbps
Channel(s) : 6 channels
Channel positions : Front: L C R, Side: L R, LFE
Sampling rate : 48.0 KHz
Bit depth : 16 bits
Compression mode : Lossy
Stream size : 275 MiB
Title : !!!dip 6CH.AC3
Language : Tamil



Audio #4
ID : 5
Format : AC-3
Format/Info : Audio Coding 3
Mode extension : CM (complete main)
Muxing mode : Header stripping
Codec ID : A_AC3
Duration : 1h 25mn
Bit rate mode : Constant
Bit rate : 448 Kbps
Channel(s) : 6 channels
Channel positions : Front: L C R, Side: L R, LFE
Sampling rate : 48.0 KHz
Bit depth : 16 bits
Compression mode : Lossy
Stream size : 275 MiB
Title : !!!dip 6CH.AC3
Language : Telugu



Text
ID : 4
Format : SSA
Codec ID : S_TEXT/SSA
Codec ID/Info : Sub Station Alpha
Compression mode : Lossless
Title : !!!dip 6CH.AC3
Language : English


SAMPLE IMAGE:
 
http://www.shotpix.com/images/65327528839352060222.jpg
 
http://www.shotpix.com/images/49689026618581384472.jpg
 
http://www.shotpix.com/images/82533352339416927600.jpg
 
http://www.shotpix.com/images/95589307337850548925.jpg


VIDEO SAMPLE IS AVAILABLE CHECK THE TORRENT: